<?xml version="1.0" encoding="utf-8"?>
<!-- Generator: Adobe Illustrator 23.0.3, SVG Export Plug-In . SVG Version: 6.00 Build 0)  -->
<svg version="1.1" id="Capa_1" xmlns="http://www.w3.org/2000/svg" xmlns:xlink="http://www.w3.org/1999/xlink" x="0px" y="0px"
	 viewBox="0 0 60 60" style="enable-background:new 0 0 60 60;" xml:space="preserve">
<style type="text/css">
	.st0{stroke:#ff7f00;stroke-width:0.5;stroke-miterlimit:10;}
path {fill:#ff7f00}
polygon {fill:#ff7f00}
</style>
<g>
	<path d="M38.9,0H6.5v60h47V14.6L38.9,0z M39.5,3.4L50.1,14H39.5V3.4z M8.5,58V2h29v14h14v42H8.5z"/>
	<path d="M14.5,13h9c0.6,0,1-0.4,1-1s-0.4-1-1-1h-9c-0.6,0-1,0.4-1,1S13.9,13,14.5,13z"/>
	<path d="M14.5,21h5c0.6,0,1-0.4,1-1s-0.4-1-1-1h-5c-0.6,0-1,0.4-1,1S13.9,21,14.5,21z"/>
	<path d="M29.5,21h7c0.6,0,1-0.4,1-1s-0.4-1-1-1h-7c-0.6,0-1,0.4-1,1S28.9,21,29.5,21z"/>
	<path d="M23.8,19.3c-0.2,0.2-0.3,0.4-0.3,0.7c0,0.3,0.1,0.5,0.3,0.7c0.2,0.2,0.4,0.3,0.7,0.3s0.5-0.1,0.7-0.3
		c0.2-0.2,0.3-0.4,0.3-0.7c0-0.3-0.1-0.5-0.3-0.7C24.8,18.9,24.2,18.9,23.8,19.3z"/>
	<path d="M29,13c0.3,0,0.5-0.1,0.7-0.3S30,12.2,30,12c0-0.3-0.1-0.5-0.3-0.7c-0.4-0.4-1-0.4-1.4,0C28.1,11.5,28,11.7,28,12
		s0.1,0.5,0.3,0.7C28.4,12.9,28.7,13,29,13z"/>
</g>
<g>
	<g>
		<g>
			
			<path class="st0" d="M45,38.4v-2.1h-5.2v-5.2h-1v5.2h-4.1v2.1h-1.6v-8.3h-1V58h-5.2v-4.1h-7.2V58h-5.2V27h17.6v1.6h1V26H13.5v33
				h24.3v-1h-4.7V39.4h4.7v-1h-2.1v-1.1H44v2.1h1.5V58h-6.2v1h7.2V38.4H45z M25.9,58h-5.2v-3.2h2.1V57h1v-2.1h2.1L25.9,58L25.9,58z"
				/>
			<path class="st0" d="M19.6,28.1h-4.1v4.1h4.1V28.1L19.6,28.1z M18.7,31.2h-2.1v-2.1h2.1V31.2L18.7,31.2z"/>
			<path class="st0" d="M31,28.1h-4.1v4.1H31V28.1z M30,31.2h-2.1v-2.1H30V31.2z"/>
			<path class="st0" d="M25.3,28.1h-4.1v4.1h4.1V28.1z M24.3,31.2h-2.1v-2.1h2.1V31.2z"/>
			<path class="st0" d="M19.6,33.2h-4.1v4.1h4.1V33.2L19.6,33.2z M18.7,36.3h-2.1v-2.1h2.1V36.3L18.7,36.3z"/>
			<path class="st0" d="M26.9,37.3H31v-4.1h-4.1V37.3z M27.9,34.2H30v2.1h-2.1V34.2z"/>
			<path class="st0" d="M25.3,33.2h-4.1v4.1h4.1V33.2z M24.3,36.3h-2.1v-2.1h2.1V36.3z"/>
			<path class="st0" d="M19.6,38.4h-4.1v4.1h4.1V38.4L19.6,38.4z M18.7,41.5h-2.1v-2.1h2.1V41.5L18.7,41.5z"/>
			<path class="st0" d="M26.9,42.5H31v-4.1h-4.1V42.5z M27.9,39.4H30v2.1h-2.1V39.4z"/>
			<path class="st0" d="M25.3,38.4h-4.1v4.1h4.1V38.4z M24.3,41.5h-2.1v-2.1h2.1V41.5z"/>
			<path class="st0" d="M19.6,43.6h-4.1v4.1h4.1V43.6L19.6,43.6z M18.7,46.7h-2.1v-2.1h2.1V46.7L18.7,46.7z"/>
			<path class="st0" d="M26.9,47.7H31v-4.1h-4.1V47.7z M27.9,44.6H30v2.1h-2.1V44.6z"/>
			<path class="st0" d="M25.3,43.6h-4.1v4.1h4.1V43.6z M24.3,46.7h-2.1v-2.1h2.1V46.7z"/>
			<path class="st0" d="M34.7,45.1h4.1V41h-4.1V45.1z M35.7,42h2.1v2.1h-2.1V42z"/>
			<path class="st0" d="M39.8,45.1h4.1V41h-4.1V45.1z M40.8,42h2.1v2.1h-2.1V42z"/>
			<path class="st0" d="M34.7,50.8h4.1v-4.1h-4.1V50.8z M35.7,47.7h2.1v2.1h-2.1V47.7z"/>
			<path class="st0" d="M39.8,50.8h4.1v-4.1h-4.1V50.8z M40.8,47.7h2.1v2.1h-2.1V47.7z"/>
			<path class="st0" d="M34.7,56.4h4.1v-4.1h-4.1V56.4z M35.7,53.3h2.1v2.1h-2.1V53.3z"/>
			<path class="st0" d="M39.8,56.4h4.1v-4.1h-4.1V56.4z M40.8,53.3h2.1v2.1h-2.1V53.3z"/>
			<path class="st0" d="M15.6,52.8h4.1v-4.1h-4.1V52.8z M16.5,49.7h2.1v2.1h-2.1V49.7z"/>
			<path class="st0" d="M26.9,52.8H31v-4.1h-4.1V52.8z M27.9,49.7H30v2.1h-2.1V49.7z"/>
			<path class="st0" d="M21.2,52.8h4.1v-4.1h-4.1V52.8z M22.2,49.7h2.1v2.1h-2.1V49.7z"/>
			<polygon class="st0" points="31.6,53.9 31,53.9 28.5,53.9 27.9,53.9 27.9,54.9 28.5,54.9 31,54.9 31.6,54.9 			"/>
			<polygon class="st0" points="31,57 31.6,57 31.6,56 31,56 28.5,56 27.9,56 27.9,57 28.5,57 			"/>
		</g>
	</g>
</g>
<path d="M14.5,6.3h5c0.6,0,1-0.4,1-1s-0.4-1-1-1h-5c-0.6,0-1,0.4-1,1S13.9,6.3,14.5,6.3z"/>
</svg>
