<?xml version="1.0" encoding="utf-8"?>
<!-- Generator: Adobe Illustrator 23.0.3, SVG Export Plug-In . SVG Version: 6.00 Build 0)  -->
<svg version="1.1" id="Layer_1" xmlns="http://www.w3.org/2000/svg" xmlns:xlink="http://www.w3.org/1999/xlink" x="0px" y="0px"
	 viewBox="0 0 1469.8 1450" style="enable-background:new 0 0 1469.8 1450;" xml:space="preserve">
<style type="text/css">
	.st0{display:none;}
	.st1{display:inline;}
	.st2{fill:#373435;}
	.st3{fill:#FF8500;}
	.st4{fill:#013475;}
</style>
<g id="_1080741152_2_" class="st0">
	<g class="st1">
		<path class="st2" d="M-2595.5,788.1c17.8,30.5,26.6,64.2,26.6,100.9v169.5h-402.7V462.4h174.7c34.9,0,67.7,8.7,99,25.8
			c9,5.1,16.3,10.3,21.7,14.2c24.9,19,44.7,42.4,58.6,70.1c14.2,27.7,21.7,57.4,22.2,89.1c-0.4,34.1-8.3,65.3-23.7,93.5
			C-2609.4,766.4-2601.4,777.5-2595.5,788.1L-2595.5,788.1z M-2650.1,889.1c0-26.6-7.6-50.7-22.5-71.6l-3.9-4.8l-8.3-9
			c-16.3-16.3-35.6-26.9-57.8-32.9c-7.1-1.7-15.9-2.7-26.9-2.7v-80.4c29.3,0,57,6.3,84.7,18.6c5.1-14.2,8.3-29.3,8.3-43.6
			c0-15.9-2.7-31.3-9-45.6c-5.9-13.9-14.2-26.6-25.8-37.6c-11.5-11-24.2-19.8-39.2-26.1c-13.4-5.9-29.3-9-46.3-9h-93.9v434.4h240.6
			V889.1L-2650.1,889.1L-2650.1,889.1z M-2139.4,656.8v402.3h-205.1c-35.2-0.7-68.1-10.3-98.5-29c-30.5-18.3-54.2-42.4-72.1-73.2
			c-17.8-30.8-26.6-64.2-26.6-99.4c0-36,9-69.7,26.9-100.9c18.3-31.3,42.4-55.4,73.2-73.6c30.9-17.8,64.6-26.6,100.9-26.6
			c22.2,0,43.6,3.2,64.6,10.3c20.6,7.1,39.6,16.3,56.3,29.3v-39.6L-2139.4,656.8L-2139.4,656.8z M-2219.7,857.8
			c0-15.9-2.7-31.3-9-45.9c-6.3-14.6-14.6-28.1-26.1-39.2c-11.5-11.1-24.2-20.2-39.2-26.1c-14.6-6.3-30.1-9-45.9-9
			c-31.7,0-60.5,11.9-85.1,35.2c-11.5,11.5-20.2,24.2-25.8,39.2c-5.9,14.6-9,30.1-9,45.9c0,32.5,11.5,61,34.9,85.1
			c24.6,22.9,53.1,34.9,85.1,34.9h120.4L-2219.7,857.8L-2219.7,857.8z M-362.4,737.1h-101.3c-31.7,0-60.5,11.9-85.1,35.2
			c-11.5,11.5-20.2,24.2-25.8,39.2c-5.9,14.6-9,30.1-9,45.9v200.7h-80.8V852.2c0.7-35.2,10.3-68.1,29-98.5
			c18.3-30.5,42.4-54.2,73.2-72.1c30.9-17.3,64.2-25.8,99.4-25.8h101.3L-362.4,737.1L-362.4,737.1z M-160,651.2
			c36,0,69.7,9,100.5,26.9c30.9,18.3,55,43.2,73.2,74.5c17.8,31.7,26.6,66.6,26.6,104.6v0.7c0,37.6-9,72.5-26.6,103.3
			c-17.8,31.3-42,56.3-73.2,74.9c-30.9,18.6-64.9,28.1-101.3,28.1c-36,0-69.7-9-100.9-26.9c-31.3-18.3-55-43.2-73.2-74.9
			c-18.3-30.9-26.9-65.7-26.9-104.6v-0.7c0-37.6,9-72.5,26.6-103.7c17.8-31.7,42.4-56.3,73.6-74.9C-231,660.3-197.3,651.2-160,651.2
			L-160,651.2L-160,651.2z M-74.2,949.7c24.2-24.2,36-54.6,36-91.9c0-37.3-11.9-67.7-36-91.9s-53.1-36-86.7-36
			c-33.5,0-62.5,11.9-86.7,36c-23.7,23.7-35.2,54.2-35.2,91.9s11.9,68.1,35.2,91.9c11.5,11.5,24.6,20.2,39.6,26.1
			c14.6,6.3,30.9,9,46.7,9s32.1-2.7,46.7-9C-98.8,969.8-85.7,960.8-74.2,949.7z"/>
		<path class="st3" d="M-1579.9,1057.8h-81.2V857.5c0-16.3-2.7-31.7-9-46.3c-6.3-14.2-14.6-27.7-26.1-39.2s-24.2-20.2-39.2-26.1
			c-14.6-6.3-30.1-9-45.9-9h-19.8v320.8h-80.4V736.8h-135.8v321.5h-80.8V656.4h316.8c36,0,69.7,9,100.9,26.9
			c30.9,18.3,55.4,42.4,73.6,73.2c18.3,30.5,26.9,64.2,26.9,100.9L-1579.9,1057.8L-1579.9,1057.8z M-1147.6,656.8v402.3h-204.7
			c-35.2-0.7-68.1-10.3-98.5-29c-30.5-18.3-54.2-42.4-72.1-73.2c-17.8-30.9-26.6-64.2-26.6-99.4c0-36,9-69.7,26.9-100.9
			c18.3-30.9,42.4-55.4,73.2-73.6c30.9-17.8,64.6-26.6,100.9-26.6c22.2,0,43.6,3.2,64.6,10.3c20.6,7.1,39.6,16.3,56.3,29.3v-39.6
			L-1147.6,656.8L-1147.6,656.8z M-1227.9,857.8c0-15.9-2.7-31.3-9-45.9c-6.3-14.6-14.6-28.1-26.1-39.2
			c-11.5-11.5-24.2-20.2-39.2-26.1c-14.6-6.3-30.1-9-45.9-9c-31.7,0-60.5,11.9-85.1,35.2c-11.5,11.5-20.2,24.2-25.8,39.2
			c-5.9,14.6-9,30.1-9,45.9c0,32.5,11.5,61,34.9,85.1c24.6,22.9,53.1,34.9,85.1,34.9h120.8L-1227.9,857.8L-1227.9,857.8z
			 M-704.9,1058.6h-81.2V857.8c0-15.9-2.7-31.3-9-45.9c-6.3-14.6-14.6-28.1-26.1-39.2c-11.5-11.5-24.2-20.2-39.2-26.1
			c-14.2-6.3-30.1-9-46.3-9h-118.8v321.5h-81.2v-402h199.6c36.9,0,70.5,9,101.3,26.6c30.9,17.3,55.4,42.4,73.6,73.6
			c17.8,30.5,26.6,64.2,26.6,100.9L-704.9,1058.6L-704.9,1058.6L-704.9,1058.6z"/>
	</g>
</g>
<g id="_1080745664_2_">
	<path class="st3" d="M428.7,1131.9c69.9,88.7,163.7,182.2,282.3,280.5c18.5,15.4,45.2,15.4,63.4,0c97.6-81.2,178.5-160.7,243.9-235
		c20.2-23,39.1-45.6,56.5-67.5c17.1-21.6,32.9-42.5,47.6-63c29.8-41.4,55.2-77.1,77.1-112.4c22.6-36.7,42.1-72.6,59.6-114.8
		c10.3-25.3,19.9-52.8,29.5-83.6c0,0-171.6,34.3-171.6,34.6c-6.5,15.8-21.6,37.3-40.1,59.9c-16.8,19.9-36.3,40.4-55.5,57.5
		c-14.7,13-30.1,25.3-46.9,36.3c-65.8,44.2-143.5,69.9-231.6,69.9c-231.2-0.7-388.5-170.6-426.5-385.4c-12-68.5-11.3-140.1,11.3-200
		C392.4,237.3,513,139.7,696.6,118.8c50-5.8,95.6-3.1,135.6,4.1c59.3,10.6,155.2,45.2,202.1,93.2c1.4,1.4,132.2-40.8,132.2-40.8
		c-32.9-38-75-70.6-120.6-96.3c-36.7-20.6-75.7-37.3-114.8-48.6C804-7.3,670.8-0.4,578.3,23.2c-91.1,23.3-166.5,67.8-226.4,125
		C255.6,240,193.3,373.3,177.2,504.8c-16.1,130.2,24.7,261,88,381.6C312.6,975.3,370.8,1058.2,428.7,1131.9L428.7,1131.9z"/>
	<path class="st4" d="M493.5,776c-27.7,2.4-40.1,25.3,1,25.3c85.3,0,306.2-17.1,466.6-40.1c48.3-7.2,110.3-15.4,155.9-31.9
		c48.6-17.8,46.6-87-19.2-76.4c-48,7.5-121.3,29.8-147.6,36.7C820.3,723.2,634.9,763,493.5,776z M1273.5,241.9
		c-40.4,15.8-83.9,32.2-130.2,50c-83.9,32.2-168.5,64.4-253.8,94.5c-79.5,27.7-159.6,53.8-240.5,76c-85.3,23.3-167.5,41.4-241.5,50
		c-79.8,9.2-150.4,7.5-205.5-9.9c-90.8-28.8-107.9-83.6-102.8-142.8c5.8-67.5,57.5-126.1,145.9-212C136.9,193.9,58.1,296,44,366.9
		c-15.4,76-4.1,152.1,66.1,208.6c38,30.5,94.5,44.9,163.1,46.9c63.7,1.7,138-6.9,217.5-21.9C591.1,581,700,550.8,807.6,516.6
		c103.1-32.5,204.8-68.5,297-102.4c75.4-27.4,144.2-52.4,202.1-73c22.3-7.9,43.5-15.4,62.3-21.6c27.1-9.2,39.7-26.4,42.5-43.8
		c2.7-19.9-7.2-40.4-24.7-51.7C1355,201.9,1307.7,228.9,1273.5,241.9L1273.5,241.9z M1350.2,506.1c-16.4,5.5-32.9,10.6-49.3,16.1
		c-11.3,3.4-23,7.5-34.9,11.3c-25,8.2-49.7,16.1-74.7,24.3c-88,28.1-178.5,56.2-268.9,81.2c-95.6,26.4-191.5,49-286.7,65.8
		c-94.2,16.4-187.4,27.1-278.2,28.4c-97.3,1.4-177.1-11.3-210.3-51c-4.5-5.8-5.1-11.3,3.1-11c65.4,5.1,130.9,5.1,196.3,0
		c92.1-6.9,185.7-21.6,279.5-42.5c101.1-22.3,202.4-51.7,303.2-84.3c84.3-27.1,167.8-56.5,250.1-86c13.4-5.1,27.1-9.6,40.4-14.7
		c12.7-4.5,25.7-9.2,38.4-13.7c13.7-5.1,27.7-9.9,41.4-15.4c24.3-8.9,50.7-23,76.4-13.4c28.8,11,44.2,46.2,21.9,75.4
		C1389.6,487.6,1373.8,498.2,1350.2,506.1L1350.2,506.1z"/>
</g>
</svg>
