<?xml version="1.0" standalone="no"?>
<!DOCTYPE svg PUBLIC "-//W3C//DTD SVG 20010904//EN"
 "http://www.w3.org/TR/2001/REC-SVG-20010904/DTD/svg10.dtd">
<svg version="1.0" xmlns="http://www.w3.org/2000/svg"
 width="1470.000000pt" height="1470.000000pt" viewBox="0 0 1470.000000 1470.000000"
 preserveAspectRatio="xMidYMid meet">
<metadata>
Created by potrace 1.11, written by Peter Selinger 2001-2013
</metadata>
<g transform="translate(0.000000,1470.000000) scale(0.100000,-0.100000)"
fill="#000000" stroke="none">
<path d="M7468 14566 c-1 -2 -115 -7 -253 -10 -137 -4 -270 -8 -295 -10 -91
-7 -196 -17 -230 -21 -19 -2 -64 -7 -100 -10 -36 -3 -72 -8 -80 -10 -8 -2 -37
-6 -65 -10 -27 -3 -79 -11 -115 -16 -36 -6 -81 -13 -100 -16 -19 -3 -78 -14
-130 -25 -52 -11 -108 -22 -125 -25 -167 -27 -693 -189 -870 -268 -16 -7 -59
-25 -95 -40 -79 -33 -384 -182 -460 -225 -151 -87 -481 -297 -500 -319 -3 -3
-41 -33 -85 -65 -68 -51 -240 -189 -255 -206 -3 -3 -43 -39 -90 -80 -169 -149
-330 -318 -543 -570 -66 -78 -253 -334 -333 -455 -198 -302 -397 -672 -520
-967 -14 -35 -32 -76 -39 -93 -80 -182 -250 -706 -290 -895 -2 -8 -15 -69 -30
-135 -14 -66 -28 -136 -31 -155 -3 -19 -12 -65 -19 -101 -8 -36 -17 -90 -20
-120 -4 -30 -7 -55 -8 -56 -6 -5 -222 109 -278 147 -362 242 -534 586 -523
1045 2 98 12 230 20 256 3 10 6 31 9 47 18 146 126 412 250 617 64 105 240
351 275 385 3 3 23 28 45 55 21 28 42 52 45 55 4 3 42 46 85 95 134 152 161
181 445 468 151 153 277 281 279 283 10 10 -102 -43 -224 -106 -180 -93 -386
-224 -541 -346 -245 -191 -437 -374 -641 -614 -89 -105 -253 -337 -322 -455
-42 -73 -128 -242 -158 -310 -27 -61 -104 -285 -98 -285 3 0 1 -10 -4 -23 -5
-13 -12 -41 -15 -63 -4 -21 -11 -64 -16 -94 -29 -170 -35 -254 -35 -455 0
-192 5 -262 31 -395 85 -455 315 -829 694 -1131 151 -120 371 -234 577 -300
65 -20 73 -26 74 -48 0 -15 2 -33 3 -41 2 -8 6 -44 10 -80 4 -36 9 -76 11 -90
2 -14 6 -43 9 -65 4 -34 30 -185 53 -314 l6 -34 -129 7 c-71 3 -156 9 -189 12
-77 6 -101 -8 -90 -54 9 -45 122 -157 220 -222 74 -48 211 -119 262 -134 17
-6 28 -25 48 -94 14 -48 28 -96 31 -107 3 -11 9 -29 13 -40 5 -11 23 -65 41
-120 42 -130 117 -338 141 -392 10 -23 19 -45 19 -48 0 -7 88 -222 115 -281 8
-16 27 -59 43 -95 71 -157 99 -215 187 -389 103 -207 228 -435 344 -630 28
-47 58 -98 67 -115 9 -16 65 -106 123 -199 58 -93 113 -181 121 -195 21 -35
317 -477 387 -576 160 -228 376 -519 627 -845 176 -229 593 -719 766 -900 8
-8 48 -51 89 -95 189 -203 684 -696 890 -885 57 -52 118 -108 136 -125 186
-172 416 -376 630 -559 77 -66 142 -123 145 -126 15 -17 248 -205 279 -224 67
-43 152 -68 236 -71 76 -3 174 11 191 28 4 4 14 7 21 7 26 0 118 67 259 186
76 65 144 123 150 129 6 5 33 29 60 51 27 23 60 52 74 64 14 12 47 41 73 64
27 22 59 50 71 61 12 11 60 54 106 95 124 110 181 162 211 190 14 14 75 70
135 125 236 217 725 700 939 927 196 207 408 439 496 543 19 22 36 42 39 45
12 11 148 169 185 214 22 27 45 54 50 60 9 9 152 182 183 221 254 316 467 600
748 995 238 336 265 374 279 398 6 9 13 19 16 22 25 20 399 612 490 775 18 33
45 83 61 110 162 291 343 691 470 1040 42 115 177 519 174 522 -1 1 -69 -12
-151 -28 -83 -17 -161 -32 -175 -35 -14 -2 -36 -7 -50 -10 -14 -3 -36 -8 -50
-10 -14 -2 -45 -9 -70 -14 -25 -5 -61 -12 -80 -15 -19 -4 -64 -12 -100 -20
-36 -8 -76 -17 -90 -19 -14 -3 -35 -7 -48 -10 -12 -3 -192 -39 -400 -81 -207
-42 -404 -81 -437 -88 l-60 -12 -35 -67 c-166 -317 -598 -830 -955 -1134 -38
-32 -75 -63 -81 -69 -27 -25 -104 -87 -154 -124 -30 -22 -59 -44 -65 -48 -16
-14 -153 -106 -230 -155 -717 -460 -1594 -685 -2470 -634 -119 7 -168 12 -320
31 -47 5 -132 18 -150 21 -11 3 -36 7 -55 10 -254 40 -650 158 -878 260 -29
13 -55 24 -58 24 -13 0 -314 155 -404 207 -469 276 -897 663 -1241 1123 -115
155 -219 315 -344 535 -52 90 -185 364 -185 380 0 12 18 15 108 16 139 1 448
13 617 24 146 10 225 16 265 20 25 3 77 7 115 10 39 3 90 7 115 10 25 2 72 7
105 10 33 4 71 8 85 10 14 2 59 6 100 10 41 3 86 8 100 10 31 5 91 13 150 20
25 3 61 7 80 10 19 3 53 7 75 10 40 4 95 12 144 19 14 3 46 7 71 11 52 8 51 7
235 36 77 11 149 22 160 24 19 3 254 42 304 50 35 6 127 24 186 35 28 6 109
21 180 34 148 28 160 31 235 46 30 6 66 13 80 16 22 4 76 16 90 19 3 1 23 5
45 9 81 17 623 138 725 162 58 14 114 28 126 30 32 6 602 149 734 184 560 149
1272 354 1890 543 80 25 222 68 315 97 169 51 448 139 725 228 80 25 150 47
155 48 10 2 344 111 550 179 55 18 249 81 430 140 883 285 947 313 1101 472
57 59 117 170 132 248 46 225 -92 456 -327 546 -137 53 -368 23 -596 -76 -81
-35 -450 -171 -990 -365 -170 -61 -328 -118 -350 -127 -22 -9 -58 -21 -80 -29
-22 -7 -92 -31 -155 -54 -63 -23 -142 -50 -175 -61 -33 -11 -69 -24 -80 -29
-19 -8 -227 -82 -460 -163 -55 -20 -199 -70 -320 -112 -284 -99 -1054 -356
-1305 -435 -107 -34 -213 -68 -235 -75 -113 -39 -609 -190 -920 -280 -27 -8
-102 -30 -165 -48 -136 -40 -269 -78 -290 -82 -8 -2 -91 -24 -185 -50 -93 -25
-204 -55 -245 -65 -41 -11 -138 -35 -215 -55 -77 -19 -149 -37 -160 -39 -11
-3 -74 -18 -140 -35 -66 -16 -203 -48 -305 -71 -102 -22 -214 -47 -250 -55
-36 -8 -76 -17 -90 -19 -67 -13 -86 -17 -99 -22 -8 -2 -30 -7 -50 -10 -20 -3
-101 -19 -181 -35 -80 -17 -181 -36 -225 -44 -44 -8 -91 -17 -105 -19 -52 -10
-317 -56 -350 -61 -19 -3 -46 -7 -60 -10 -14 -3 -45 -7 -70 -10 -25 -3 -70 -9
-100 -15 -30 -5 -75 -12 -100 -15 -57 -8 -108 -15 -140 -20 -14 -2 -63 -9
-110 -15 -47 -5 -94 -12 -105 -14 -11 -2 -54 -7 -95 -11 -41 -4 -77 -8 -80
-10 -3 -2 -43 -6 -90 -10 -47 -4 -92 -8 -100 -10 -8 -2 -51 -6 -95 -10 -44 -3
-91 -8 -105 -10 -14 -2 -61 -6 -105 -10 -44 -4 -96 -8 -115 -10 -19 -2 -83 -6
-141 -10 l-105 -7 -21 74 c-22 75 -79 304 -87 348 -2 14 -7 37 -11 53 -5 19
-3 27 6 28 128 5 309 17 374 24 22 3 69 7 105 10 63 5 274 30 355 41 22 3 54
7 70 9 124 17 329 47 370 55 28 5 68 12 90 15 83 12 409 72 490 90 33 8 74 16
90 18 17 3 64 13 105 22 41 9 84 18 95 21 11 2 70 15 130 29 124 29 142 33
170 39 11 3 61 14 110 26 50 12 97 23 105 25 153 33 1095 285 1180 316 14 4
72 22 130 38 143 40 218 63 480 143 124 38 277 85 340 104 63 19 122 37 130
41 8 3 20 7 25 9 235 63 1762 586 2495 854 124 46 248 91 275 100 49 18 217
79 550 200 94 34 274 99 400 145 127 46 264 95 305 110 41 15 122 45 180 65
189 68 383 138 485 175 55 20 190 67 300 106 110 38 223 78 250 88 28 10 120
42 205 71 245 83 345 142 432 257 144 191 126 452 -45 639 -106 116 -241 176
-394 176 -51 0 -100 -3 -110 -6 -10 -3 -37 -8 -61 -11 -90 -13 -267 -75 -557
-195 -134 -56 -322 -129 -670 -261 -159 -61 -312 -120 -340 -131 -27 -11 -90
-35 -140 -54 -49 -18 -124 -46 -165 -62 -41 -16 -131 -50 -200 -76 -69 -26
-134 -51 -145 -57 -11 -5 -81 -31 -155 -59 -74 -28 -142 -53 -150 -57 -8 -3
-35 -14 -60 -23 -41 -15 -164 -62 -610 -230 -164 -62 -330 -124 -600 -222 -91
-33 -226 -83 -300 -110 -74 -27 -184 -67 -245 -88 -60 -21 -182 -64 -270 -95
-272 -96 -1041 -351 -1220 -405 -33 -10 -154 -47 -270 -83 -372 -114 -979
-288 -1125 -322 -8 -2 -71 -17 -140 -35 -69 -17 -132 -33 -140 -35 -8 -2 -46
-11 -85 -20 -38 -9 -77 -18 -85 -20 -8 -2 -42 -10 -75 -19 -61 -15 -445 -100
-500 -110 -36 -7 -71 -14 -105 -21 -14 -3 -36 -8 -50 -10 -14 -3 -61 -12 -105
-21 -113 -22 -111 -21 -210 -38 -94 -16 -388 -61 -465 -71 -25 -3 -61 -8 -80
-10 -19 -3 -60 -7 -90 -10 -30 -3 -75 -7 -100 -10 -66 -8 -124 -14 -225 -21
-49 -3 -106 -8 -125 -10 -19 -2 -145 -6 -279 -9 l-244 -5 7 142 c4 79 9 161
11 183 7 65 15 128 20 155 2 14 7 43 10 65 16 109 54 272 92 395 15 47 28 87
28 90 1 3 5 14 10 25 4 11 27 71 52 134 155 399 366 791 609 1131 198 277 565
656 788 815 16 11 34 25 40 31 7 7 62 46 122 87 392 269 829 467 1305 591 125
33 274 68 344 80 17 3 41 8 55 11 14 3 41 7 60 10 19 3 46 7 60 10 23 5 116
18 210 29 19 3 60 8 90 11 283 36 766 36 1015 0 17 -2 57 -7 90 -10 33 -4 67
-8 75 -10 8 -2 33 -7 55 -10 23 -3 52 -7 65 -10 14 -3 52 -10 85 -15 56 -10
331 -79 400 -100 80 -25 342 -112 360 -120 11 -5 65 -27 120 -49 196 -77 438
-194 595 -286 155 -91 343 -229 445 -327 22 -21 45 -38 50 -38 19 0 487 144
960 295 99 31 217 69 263 83 45 15 82 30 82 35 0 12 -328 339 -406 405 -373
317 -821 594 -1284 797 -47 20 -100 43 -118 52 -159 71 -666 235 -827 267 -11
3 -74 16 -140 31 -66 14 -154 33 -195 40 -41 8 -88 17 -105 20 -16 3 -48 8
-70 11 -22 3 -51 7 -65 10 -44 8 -83 13 -180 24 -52 6 -111 13 -130 15 -134
16 -246 23 -465 30 -99 4 -185 8 -192 10 -6 2 -13 2 -15 1z"/>
<path d="M11009 8076 c-2 -2 -24 -6 -49 -10 -81 -10 -289 -53 -485 -101 -139
-33 -476 -123 -715 -190 -110 -31 -650 -172 -690 -180 -8 -2 -64 -15 -125 -30
-60 -15 -117 -28 -126 -30 -8 -2 -44 -10 -80 -19 -35 -9 -73 -18 -84 -20 -11
-2 -78 -18 -150 -34 -71 -17 -193 -45 -270 -62 -142 -31 -180 -40 -270 -60
-129 -30 -797 -164 -1020 -205 -61 -12 -88 -17 -165 -31 -47 -9 -94 -17 -105
-19 -11 -2 -36 -6 -55 -9 -19 -4 -51 -9 -70 -13 -19 -3 -44 -7 -55 -9 -11 -2
-90 -15 -175 -29 -182 -30 -260 -42 -315 -51 -22 -4 -49 -8 -60 -9 -22 -2
-106 -14 -134 -20 -10 -2 -42 -6 -72 -10 -30 -3 -65 -8 -79 -10 -14 -2 -45 -7
-70 -10 -25 -3 -56 -8 -70 -10 -14 -2 -54 -6 -90 -10 -36 -4 -76 -8 -90 -10
-23 -3 -57 -7 -160 -20 -19 -2 -66 -7 -105 -10 -38 -3 -81 -8 -95 -10 -14 -2
-47 -6 -73 -10 -107 -13 -209 -73 -223 -131 -9 -36 18 -69 73 -91 43 -16 79
-18 343 -18 252 1 419 6 665 20 28 2 104 6 170 9 66 4 143 9 170 11 28 2 95 7
150 10 55 3 125 8 155 11 30 2 89 6 130 9 41 3 104 8 140 11 36 3 90 7 120 10
59 4 167 12 240 19 25 2 81 7 125 10 44 3 91 8 105 10 14 2 61 6 105 10 44 4
96 8 115 10 19 2 64 6 100 10 62 5 100 9 215 21 64 6 124 12 205 19 36 4 76 8
90 10 14 2 57 7 96 10 39 3 80 7 90 9 10 2 53 7 94 11 41 4 82 9 90 10 9 2 47
6 85 9 39 4 120 13 180 21 61 8 135 17 165 20 30 3 71 8 90 10 19 3 55 7 80
10 25 3 56 8 70 10 14 3 50 7 80 10 30 3 66 7 80 10 14 2 41 6 60 9 19 3 51 8
70 10 19 3 57 8 84 11 27 3 59 7 70 10 12 2 44 7 71 10 28 3 57 8 65 10 8 2
35 6 60 9 25 3 106 14 180 26 142 22 150 23 245 39 33 6 100 17 149 25 49 9
96 18 105 20 9 3 33 7 53 10 21 3 59 11 85 17 27 6 59 13 72 15 73 14 346 88
434 118 132 44 210 90 282 167 85 93 127 201 120 315 -11 196 -164 314 -405
314 -48 0 -89 -2 -91 -4z"/>
</g>
</svg>
